<svg width="22" height="22" viewBox="0 0 22 22" fill="none" xmlns="http://www.w3.org/2000/svg">
<path d="M7.15039 11C7.00452 11 6.86463 11.058 6.76148 11.1611C6.65834 11.2642 6.60039 11.4041 6.60039 11.55C6.60039 11.6959 6.65834 11.8358 6.76148 11.9389C6.86463 12.0421 7.00452 12.1 7.15039 12.1C7.29626 12.1 7.43615 12.0421 7.5393 11.9389C7.64244 11.8358 7.70039 11.6959 7.70039 11.55C7.70039 11.4041 7.64244 11.2642 7.5393 11.1611C7.43615 11.058 7.29626 11 7.15039 11ZM6.60039 13.75C6.60039 13.6041 6.65834 13.4642 6.76148 13.3611C6.86463 13.258 7.00452 13.2 7.15039 13.2C7.29626 13.2 7.43615 13.258 7.5393 13.3611C7.64244 13.4642 7.70039 13.6041 7.70039 13.75C7.70039 13.8959 7.64244 14.0358 7.5393 14.1389C7.43615 14.2421 7.29626 14.3 7.15039 14.3C7.00452 14.3 6.86463 14.2421 6.76148 14.1389C6.65834 14.0358 6.60039 13.8959 6.60039 13.75ZM8.80039 11.55C8.80039 11.4041 8.85834 11.2642 8.96148 11.1611C9.06463 11.058 9.20452 11 9.35039 11H13.7504C13.8963 11 14.0362 11.058 14.1393 11.1611C14.2424 11.2642 14.3004 11.4041 14.3004 11.55C14.3004 11.6959 14.2424 11.8358 14.1393 11.9389C14.0362 12.0421 13.8963 12.1 13.7504 12.1H9.35039C9.20452 12.1 9.06463 12.0421 8.96148 11.9389C8.85834 11.8358 8.80039 11.6959 8.80039 11.55ZM9.35039 13.2C9.20452 13.2 9.06463 13.258 8.96148 13.3611C8.85834 13.4642 8.80039 13.6041 8.80039 13.75C8.80039 13.8959 8.85834 14.0358 8.96148 14.1389C9.06463 14.2421 9.20452 14.3 9.35039 14.3H13.7504C13.8963 14.3 14.0362 14.2421 14.1393 14.1389C14.2424 14.0358 14.3004 13.8959 14.3004 13.75C14.3004 13.6041 14.2424 13.4642 14.1393 13.3611C14.0362 13.258 13.8963 13.2 13.7504 13.2H9.35039ZM6.60039 2.20001C6.01691 2.20001 5.45734 2.4318 5.04476 2.84438C4.63218 3.25696 4.40039 3.81654 4.40039 4.40001V15.4C4.40039 15.9835 4.63218 16.5431 5.04476 16.9556C5.45734 17.3682 6.01691 17.6 6.60039 17.6H14.3004C14.8839 17.6 15.4434 17.3682 15.856 16.9556C16.2686 16.5431 16.5004 15.9835 16.5004 15.4V8.15541C16.5 7.71795 16.3259 7.29855 16.0164 6.98941L11.711 2.68291C11.4017 2.37379 10.9823 2.20011 10.545 2.20001H6.60039ZM5.50039 4.40001C5.50039 4.10827 5.61628 3.82848 5.82257 3.62219C6.02886 3.4159 6.30865 3.30001 6.60039 3.30001H9.90039V7.15001C9.90039 7.58762 10.0742 8.0073 10.3837 8.31674C10.6931 8.62617 11.1128 8.80001 11.5504 8.80001H15.4004V15.4C15.4004 15.6918 15.2845 15.9715 15.0782 16.1778C14.8719 16.3841 14.5921 16.5 14.3004 16.5H6.60039C6.30865 16.5 6.02886 16.3841 5.82257 16.1778C5.61628 15.9715 5.50039 15.6918 5.50039 15.4V4.40001ZM11.0004 7.15001V3.52771L15.1727 7.70001H11.5504C11.4045 7.70001 11.2646 7.64207 11.1615 7.53892C11.0583 7.43578 11.0004 7.29588 11.0004 7.15001ZM17.6004 8.80001C17.8921 8.80001 18.1719 8.9159 18.3782 9.1222C18.5845 9.32849 18.7004 9.60827 18.7004 9.90001V15.466C18.7004 16.0352 18.5883 16.5987 18.3705 17.1246C18.1527 17.6504 17.8334 18.1282 17.431 18.5306C17.0285 18.9331 16.5508 19.2523 16.0249 19.4701C15.4991 19.6879 14.9355 19.8 14.3664 19.8H7.70039C7.40865 19.8 7.12886 19.6841 6.92257 19.4778C6.71628 19.2715 6.60039 18.9918 6.60039 18.7H14.3004C15.1756 18.7 16.015 18.3523 16.6338 17.7335C17.2527 17.1146 17.6004 16.2752 17.6004 15.4V8.80001Z" fill="black"/>
</svg>
