<svg width="20" height="20" viewBox="0 0 20 20" fill="none" xmlns="http://www.w3.org/2000/svg">
<path d="M2.5 7.5475V13.75C2.5 14.413 2.76339 15.0489 3.23223 15.5178C3.70107 15.9866 4.33696 16.25 5 16.25H15C15.663 16.25 16.2989 15.9866 16.7678 15.5178C17.2366 15.0489 17.5 14.413 17.5 13.75V6.25C17.5 5.58696 17.2366 4.95107 16.7678 4.48223C16.2989 4.01339 15.663 3.75 15 3.75H5C4.33696 3.75 3.70107 4.01339 3.23223 4.48223C2.76339 4.95107 2.5 5.58696 2.5 6.25V7.5475ZM5 5H15C15.3315 5 15.6495 5.1317 15.8839 5.36612C16.1183 5.60054 16.25 5.91848 16.25 6.25V7.175L10 10.54L3.75 7.175V6.25C3.75 5.91848 3.8817 5.60054 4.11612 5.36612C4.35054 5.1317 4.66848 5 5 5ZM3.75 8.595L9.70375 11.8C9.7948 11.849 9.89659 11.8747 10 11.8747C10.1034 11.8747 10.2052 11.849 10.2963 11.8L16.25 8.595V13.75C16.25 14.0815 16.1183 14.3995 15.8839 14.6339C15.6495 14.8683 15.3315 15 15 15H5C4.66848 15 4.35054 14.8683 4.11612 14.6339C3.8817 14.3995 3.75 14.0815 3.75 13.75V8.595Z" fill="#47474F"/>
</svg>
