<svg width="16" height="16" viewBox="0 0 16 16" fill="none" xmlns="http://www.w3.org/2000/svg">
<path d="M2.93111 3.03595L2.97978 2.97995C3.06444 2.89527 3.17667 2.84379 3.29608 2.83486C3.41549 2.82593 3.53413 2.86014 3.63045 2.93128L3.68645 2.97995L7.99978 7.29262L12.3131 2.97928C12.3593 2.93155 12.4144 2.89349 12.4755 2.86731C12.5365 2.84114 12.6021 2.82738 12.6685 2.82683C12.7349 2.82628 12.8007 2.83897 12.8621 2.86414C12.9236 2.88931 12.9794 2.92646 13.0263 2.97343C13.0732 3.02039 13.1103 3.07624 13.1354 3.1377C13.1606 3.19916 13.1732 3.265 13.1726 3.33139C13.172 3.39778 13.1581 3.46338 13.1319 3.52437C13.1057 3.58536 13.0676 3.64052 13.0198 3.68662L8.70711 7.99995L13.0204 12.3133C13.105 12.398 13.1564 12.5103 13.1652 12.6297C13.174 12.7491 13.1397 12.8677 13.0684 12.964L13.0198 13.02C12.9351 13.1046 12.8229 13.1561 12.7035 13.165C12.5841 13.174 12.4654 13.1398 12.3691 13.0686L12.3131 13.02L7.99978 8.70728L3.68645 13.0206C3.5921 13.1117 3.46578 13.162 3.33468 13.1608C3.20358 13.1596 3.0782 13.1069 2.98554 13.0142C2.89288 12.9215 2.84035 12.796 2.83927 12.6649C2.8382 12.5338 2.88865 12.4075 2.97978 12.3133L7.29245 7.99995L2.97911 3.68662C2.89453 3.60188 2.84317 3.4896 2.83436 3.37019C2.82556 3.25079 2.85989 3.13219 2.93111 3.03595Z" fill="black"/>
</svg>
